<svg id="SvgjsSvg1001" width="288" height="288" xmlns="http://www.w3.org/2000/svg" version="1.1" xmlns:xlink="http://www.w3.org/1999/xlink" xmlns:svgjs="http://svgjs.com/svgjs"><defs id="SvgjsDefs1002"></defs><g id="SvgjsG1008" transform="matrix(0.9167,0,0,0.9167,11.995200000000011,11.495400000000004)"><svg xmlns="http://www.w3.org/2000/svg" width="288" height="288" viewBox="0 0 24 24"><path d="M18.5,4L19.66,8.35L18.7,8.61C18.25,7.74 17.79,6.87 17.26,6.43C16.73,6 16.11,6 15.5,6H13V16.5C13,17 13,17.5 13.33,17.75C13.67,18 14.33,18 15,18V19H9V18C9.67,18 10.33,18 10.67,17.75C11,17.5 11,17 11,16.5V6H8.5C7.89,6 7.27,6 6.74,6.43C6.21,6.87 5.75,7.74 5.3,8.61L4.34,8.35L5.5,4H18.5Z" fill="#ff6699" class="color000 svgShape"></path></svg></g></svg>